<svg xmlns="http://www.w3.org/2000/svg" viewBox="0 0 1200 630">
  <defs>
    <linearGradient id="bg" x1="0" y1="0" x2="1" y2="1">
      <stop offset="0" stop-color="#0B2A3A"/>
      <stop offset="1" stop-color="#1a4258"/>
    </linearGradient>
    <linearGradient id="d" x1="0" y1="0" x2="0" y2="1">
      <stop offset="0" stop-color="#7ad2f3"/><stop offset="1" stop-color="#3fb7e6"/>
    </linearGradient>
    <linearGradient id="b" x1="0" y1="0" x2="0" y2="1">
      <stop offset="0" stop-color="#7ac559"/><stop offset="1" stop-color="#3e8b27"/>
    </linearGradient>
  </defs>
  <rect width="1200" height="630" fill="url(#bg)"/>
  <!-- glyph -->
  <g transform="translate(120,180) scale(2.4)">
    <circle cx="40" cy="40" r="40" fill="#F6F4EF"/>
    <path d="M30 18 C 22 30, 16 38, 16 48 C 16 56, 22 62, 30 62 C 38 62, 44 56, 44 48 C 44 38, 38 30, 30 18 Z" fill="url(#d)"/>
    <ellipse cx="26" cy="34" rx="3" ry="6" fill="#fff" opacity=".4"/>
    <path d="M52 64 C 52 50, 56 38, 62 26 C 62 38, 60 50, 56 64 Z" fill="url(#b)"/>
    <path d="M46 64 C 46 54, 48 46, 52 38 C 52 46, 51 54, 50 64 Z" fill="url(#b)" opacity=".85"/>
  </g>
  <!-- text -->
  <g font-family="'Bricolage Grotesque','Helvetica Neue',Arial,sans-serif" fill="#F6F4EF">
    <text x="430" y="280" font-size="88" font-weight="800" letter-spacing="-1">TRU WASH</text>
    <text x="432" y="330" font-size="22" letter-spacing="6" font-weight="600" fill="#9FB0BC">DETAIL · LAWN · WASH</text>
    <text x="430" y="430" font-size="36" font-weight="500" fill="#F6F4EF">One trusted crew. Your truck and your yard.</text>
    <text x="430" y="478" font-size="22" font-weight="400" fill="#9FB0BC">Houma, LA · (985) 856-7396</text>
  </g>
</svg>
